<svg width="40" height="40" viewBox="0 0 40 40" fill="none" xmlns="http://www.w3.org/2000/svg">
<path d="M14.1784 0.98999H25.8418C36.4953 0.98999 39.0102 3.52464 39.0102 14.1781V25.8415C39.0102 36.495 36.4755 39.0098 25.822 39.0098H14.1586C3.50509 39.0098 0.990234 36.4751 0.990234 25.8217V14.1583C0.990234 3.52464 3.5249 0.98999 14.1784 0.98999Z" fill="#5181B8"/>
<path d="M0 0H40V40H0V0Z" fill="#5181B8"/>
<path fill-rule="evenodd" clip-rule="evenodd" d="M32.1187 14.0792C32.297 13.4852 32.1187 13.0693 31.2871 13.0693H28.5148C27.8019 13.0693 27.4851 13.4456 27.3069 13.8614C27.3069 13.8614 25.9009 17.307 23.9009 19.5248C23.2474 20.1782 22.9702 20.3763 22.6138 20.3763C22.4356 20.3763 22.1781 20.1782 22.1781 19.5842V14.0792C22.1781 13.3664 21.9801 13.0693 21.386 13.0693H17.0296C16.594 13.0693 16.3167 13.406 16.3167 13.703C16.3167 14.3763 17.3068 14.5347 17.4256 16.3961V20.4753C17.4256 21.3664 17.2672 21.5248 16.9108 21.5248C15.9801 21.5248 13.6831 18.0792 12.3365 14.1188C12.0593 13.3862 11.8019 13.0693 11.089 13.0693H8.31671C7.52463 13.0693 7.36621 13.4456 7.36621 13.8614C7.36621 14.5941 8.29691 18.2377 11.7425 23.0495C14.0395 26.3367 17.2672 28.1188 20.1979 28.1188C21.9603 28.1188 22.1781 27.7228 22.1781 27.0495V24.5545C22.1781 23.7624 22.3365 23.604 22.9108 23.604C23.3266 23.604 24.0197 23.802 25.6633 25.3862C27.5445 27.2674 27.8613 28.1188 28.9108 28.1188H31.6831C32.4752 28.1188 32.8712 27.7228 32.6336 26.9505C32.3762 26.1782 31.4851 25.0495 30.297 23.703C29.6435 22.9307 28.6732 22.1188 28.396 21.703C27.9801 21.1683 28.0989 20.9307 28.396 20.4753C28.396 20.4555 31.7821 15.703 32.1187 14.0792V14.0792Z" fill="white"/>
</svg>
